# ProBuilder 4.2.3
# https://unity3d.com/unity/features/worldbuilding/probuilder
# 2020/09/22 23:17:00

mtllib ./gate.mtl
o gate

g syudokan
v -9.989738E-05 1.000035 -38.0001
v -9.918213E-05 14.00004 -38.0001
v 5.9999 1.000035 -38.0001
v 5.999901 14.00004 -38.0001
v 5.9999 1.000035 -40.0001
v 5.999901 14.00004 -40.0001
v 46 1.000035 -40.0001
v 46 14.00004 -40.0001
v -2.0001 0.2499004 -33
v -2.0001 0.2500001 -34
v -2.0001 4.999965 -34
v -2.0001 4.999965 -33
v -2.0001 0.2499004 -27
v -2.0001 0.2499004 -28
v -2.0001 4.999965 -28
v -2.0001 4.999965 -27
v -2.0001 0.2499004 -20
v -2.0001 0.2499004 -21
v -2.0001 4.999965 -21
v -2.0001 4.999965 -20
v -1.0001 1.000035 -28
v -1.0001 1.000035 -33
v -1.0001 4.999965 -33
v -1.0001 4.999965 -28
v -1.0001 1.000035 -21
v -1.0001 1.000035 -27
v -1.0001 4.999965 -27
v -1.0001 4.999965 -21
v -2.0001 0.2499004 -15
v -1.0001 1.000035 -15
v -1.0001 1.000035 -20
v -2.0001 4.999965 -15
v -1.0001 4.999965 -15
v -1.0001 4.999965 -20
v 0 1.000035 -13.9999
v 0 14.00004 -9.999985
v 0 1.000035 -9.999985
v 0 14.00004 -13.9999
v 0 4.999965 -13.9999
v -1.00005 4.999965 -13.9999
v -2.0001 4.999965 -13.9999
v -2.000099 14.00004 -13.9999
v -1.00005 1.000035 -13.9999
v -9.918213E-05 14.00004 -34
v -9.989738E-05 1.000035 -34
v -0.0001001358 4.999965 -34
v -2.000099 14.00004 -34
v -1.0001 4.999965 -34
v -1.0001 1.000035 -34
v -2.000099 14.00004 -15
v -2.000099 14.00004 -20
v -2.000099 14.00004 -21
v -2.000099 14.00004 -27
v -2.000099 14.00004 -28
v -2.000099 14.00004 -33
v -1.0001 0.2500004 -38
v -9.989738E-05 0.2500004 -38
v -1.0001 0.2500997 -34
v -3 -0.4999553 -15
v -3 -0.4999553 -20
v -4.994869E-05 -0.5000447 -9.999992
v -0.0001000166 -0.5000447 -13.9999
v -2.0001 1 -13.9999
v -2.000125 -0.5000447 -13.9999
v -2.0002 -0.5000447 -15
v -2.0002 -0.5000447 -20
v -2.0002 -0.5000447 -21
v 7 1 -8.999947
v 7 1 -10
v 0 -0.5000447 -8.999947
v 7 1 -7.999892
v 6.9999 0 -7.999892
v 6.9999 0 -8.999947
v 8 0.9999824 -7.9999
v 7 5.000018 -7.999892
v 8 5 -7.9999
v 14 0.9999692 -7.999906
v 13 0.9999735 -7.999904
v 13 4.999991 -7.999904
v 14 4.999987 -7.999906
v 20 0.9999657 -7.999907
v 19 0.9999669 -7.999907
v 19 4.999985 -7.999907
v 20 4.999984 -7.999907
v 26 0.999965 -7.999907
v 25 0.9999652 -7.999907
v 25 4.999983 -7.999907
v 26 4.999983 -7.999907
v 32 0.9999647 -7.999907
v 31 0.9999647 -7.999907
v 31 4.999983 -7.999907
v 32 4.999983 -7.999907
v 46 4.999982 -7.999907
v 46 0.9999647 -7.999907
v 45 0.9999647 -7.999907
v 45 4.999983 -7.999907
v 46 13.99996 -7.999908
v 38 4.999983 -7.999907
v 37 4.999983 -7.999907
v 7 14 -7.999893
v 38 0.9999647 -7.999907
v 37 0.9999647 -7.999907
v 13 4.999991 -8.9999
v 13 0.9999735 -8.9999
v 8 0.9999824 -8.999896
v 8 5 -8.999896
v 19 4.999985 -8.999903
v 19 0.9999669 -8.999903
v 14 0.9999692 -8.999902
v 14 4.999987 -8.999902
v 25 4.999983 -8.999904
v 25 0.9999652 -8.999904
v 20 0.9999657 -8.999903
v 20 4.999984 -8.999903
v 31 0.9999647 -8.999904
v 26 0.999965 -8.999904
v 31 4.999983 -8.999904
v 26 4.999983 -8.999904
v 37 0.9999647 -8.999904
v 32 0.9999647 -8.999904
v 32 4.999983 -8.999904
v 37 4.999983 -8.999904
v 45 0.9999647 -8.999904
v 38 0.9999647 -8.999904
v 38 4.999983 -8.999904
v 45 4.999983 -8.999904
v 7 14 -10
v 7 5 -10
v 7 5.000009 -8.999947
v 46 4.999982 -8.9999
v 46 0.9999647 -8.9999
v 46 13.99996 -8.9999
v 46 5 -9.9999
v 46 1 -9.9999
v 46 5 -10.9999
v 46 1 -10.9999

vt 9.989738E-05 1.000035
vt 9.918213E-05 14.00004
vt -5.9999 1.000035
vt -5.999901 14.00004
vt -38.0001 1.000036
vt -38.0001 14.00004
vt -40.0001 1.000036
vt -40.0001 14.00004
vt -46 1.000035
vt -46 14.00004
vt -33 0.2499003
vt -34 0.2499999
vt -34 4.999965
vt -33 4.999965
vt -27 0.2499003
vt -28 0.2499003
vt -28 4.999965
vt -27 4.999965
vt -20 0.2499003
vt -21 0.2499003
vt -21 4.999965
vt -20 4.999965
vt 1.450019 -28
vt 1.450019 -33
vt 0.1999378 -28
vt 0.1999378 -33
vt -2.0001 0.2499004
vt -2.0001 4.999965
vt -1.0001 1.000035
vt -1.0001 4.999965
vt 2.0001 4.999965
vt 2.0001 0.2499004
vt 1.0001 4.999965
vt 1.0001 1.000035
vt -2.0001 -33
vt -2.0001 -28
vt -1.0001 -33
vt -1.0001 -28
vt 1.450019 -21
vt 1.450019 -27
vt 0.1999379 -21
vt 0.1999379 -27
vt -2.0001 -27
vt -2.0001 -21
vt -1.0001 -27
vt -1.0001 -21
vt 1.450019 -15
vt 1.450019 -20
vt 0.1999378 -15
vt 0.1999378 -20
vt -2.0001 -20
vt -2.0001 -15
vt -1.0001 -20
vt -1.0001 -15
vt 27 4.999965
vt 27 1.000035
vt 28 4.999965
vt 28 1.000035
vt 20 4.999965
vt 20 1.000035
vt 21 4.999965
vt 21 1.000035
vt -13.9999 1.000035
vt -9.999985 14.00004
vt -9.999985 1.000035
vt -13.9999 14.00004
vt -13.9999 4.999965
vt -3.978615E-13 4.999965
vt -2.000099 14.00004
vt 13.99995 4.999965
vt 13.99995 1.000035
vt 15.00005 4.999965
vt 15.00005 1.000035
vt -34 14.00004
vt -34 1.000035
vt 2.000099 14.00004
vt 34 1.000035
vt 34 4.999965
vt 33 1.000035
vt 33 4.999965
vt -1.420922E-12 -13.9999
vt -1.00005 -13.9999
vt -1.0001 -34
vt -0.0001001358 -34
vt -15 14.00004
vt -15 4.999965
vt -20 14.00004
vt -21 14.00004
vt -27 14.00004
vt -28 14.00004
vt -33 14.00004
vt 1.0001 -34
vt 1.0001 -33
vt 1.0001 -28
vt 1.0001 -27
vt 1.0001 -21
vt 1.0001 -20
vt 1.0001 -15
vt 1.00005 -13.9999
vt 1.0001 -33.2333
vt 9.989738E-05 -33.2333
vt 1.0001 -37.30301
vt 9.989738E-05 -37.30301
vt -38 0.2500004
vt -34 0.2500997
vt 2.0001 0.2500001
vt 1.0001 0.2500997
vt 2.700035 -15
vt 2.700035 -20
vt -9.999992 -0.5000447
vt -13.9999 -0.5000447
vt -13.99995 0.9999844
vt -2.0001 1
vt -15.00005 0.2498848
vt -15.00005 -0.5000603
vt -2.0002 -0.5000447
vt -3 -0.4999553
vt -0.0001000166 -0.5000447
vt -20 -0.5003111
vt -21 -0.5003111
vt 2.0002 -0.5000447
vt 3 -0.4999553
vt -7.054143 -8.999947
vt -7.054143 -10
vt 0.1047769 -8.999947
vt 0.1048257 -9.999992
vt 2.179798E-05 0.9999844
vt 7.000022 0.9999492
vt -7.999892 1.000701
vt -8.999947 1.000701
vt -7.999892 0.0007009406
vt -8.999947 0.0007009406
vt 8.00001 0.9999818
vt 7.00001 5.000017
vt 8.00001 5
vt 14.00001 0.9999687
vt 13.00001 0.999973
vt 13.00001 4.999991
vt 14.00001 4.999986
vt 20.00001 0.9999651
vt 19.00001 0.9999663
vt 19.00001 4.999984
vt 26.00001 0.9999644
vt 25.00001 0.9999647
vt 25.00001 4.999982
vt 26.00001 4.999982
vt 32.00001 0.9999642
vt 31.00001 0.9999642
vt 31.00001 4.999982
vt 32.00001 4.999982
vt 46.00001 4.999982
vt 46.00001 0.9999642
vt 45.00001 0.9999642
vt 45.00001 4.999982
vt 46.00001 13.99996
vt 38.00001 4.999982
vt 37.00001 4.999982
vt 7.00001 14
vt 38.00001 0.9999642
vt 37.00001 0.9999642
vt -7.999904 4.999991
vt -7.999904 0.9999735
vt -8.9999 4.999991
vt -8.9999 0.9999735
vt -13 -7.999904
vt -7.999998 -7.9999
vt -13 -8.9999
vt -7.999998 -8.999896
vt 7.9999 0.9999824
vt 7.9999 5
vt 8.999896 0.9999824
vt 8.999896 5
vt 7.999991 -7.9999
vt 12.99999 -7.999904
vt 7.999991 -8.999896
vt 12.99999 -8.9999
vt -19 -7.999907
vt -14 -7.999906
vt -19 -8.999903
vt -14 -8.999902
vt 7.999906 4.999987
vt 8.999902 4.999987
vt 14 -7.999906
vt 19 -7.999907
vt 14 -8.999902
vt 19 -8.999903
vt -25 -7.999907
vt -20 -7.999907
vt -25 -8.999904
vt -20 -8.999903
vt 20 -7.999907
vt 25 -7.999907
vt 20 -8.999903
vt 25 -8.999904
vt -31 -7.999907
vt -26 -7.999907
vt -31 -8.999904
vt -26 -8.999904
vt 26 -7.999907
vt 31 -7.999907
vt 26 -8.999904
vt 31 -8.999904
vt -37 -7.999907
vt -32 -7.999907
vt -37 -8.999904
vt -32 -8.999904
vt 32 -7.999907
vt 37 -7.999907
vt 32 -8.999904
vt 37 -8.999904
vt -45 -7.999907
vt -38 -7.999907
vt -45 -8.999904
vt -38 -8.999904
vt 38 -7.999907
vt 45 -7.999907
vt 38 -8.999904
vt 45 -8.999904
vt 7.000022 14
vt 7.000022 1
vt -7.999892 5.000018
vt -10 5
vt -10 14
vt -7.999893 14
vt -8.999947 5.000009
vt -8.999947 1
vt -7.999892 1
vt -6.999545 5.000009
vt -6.999545 1
vt -13.00002 0.9999735
vt -13.00002 4.999991
vt -14.00002 0.9999692
vt -14.00002 4.999987
vt -19 0.9999669
vt -19 4.999985
vt -20 0.9999657
vt -25 0.9999652
vt -25 4.999983
vt -26 0.999965
vt -26 4.999983
vt -31 0.9999647
vt -31 4.999983
vt -32 0.9999647
vt -32 4.999983
vt -37 0.9999647
vt -37 4.999983
vt -38 0.9999647
vt -38 4.999983
vt 7.999908 13.99996
vt 8.9999 13.99996
vt -44.99997 0.9999647
vt -44.99997 4.999983
vt -45.99997 0.9999647
vt -45.99997 4.999982
vt 6.999974 5
vt 6.999974 1
vt 45.99997 5
vt 45.99997 1
vt 9.9999 5
vt 9.9999 1
vt 10.9999 5
vt 10.9999 1
vt -46 -8.99993
vt -46 -9.99993
vt -7 -10.00003
vt -7 -8.999977
vt -13 -8.99993
vt 46 -8.999967
vt 32 -8.99997
vt 31 -8.99997
vt 26 -8.99997
vt 25 -8.99997
vt 20 -8.999969
vt 6.999999 -9.000013
vt 6.999999 -10.00007
vt 46 -9.999967

vn 0 0 -1
vn -1 7.335957E-08 0
vn -0.600069 0.7999483 0
vn 0 0 1
vn 0 -1 0
vn 1 5.96057E-08 0
vn 0 1 0
vn 0 0.9828706 -0.1842968
vn -0.5999644 0.8000267 0
vn -0.2095351 0.9778011 0

usemtl ProBuilderDefault
f 37/1/4 69/220/4 128/134/4
f 36/2/4 37/1/4 128/134/4
f 127/219/4 36/2/4 128/134/4
f 39/67/2 35/63/2 37/65/2
f 36/64/2 39/67/2 37/65/2
f 36/64/2 38/66/2 39/67/2
f 1/5/2 45/75/2 46/13/2
f 2/6/2 1/5/2 46/13/2
f 2/6/2 46/13/2 44/74/2
f 42/69/4 41/28/4 40/30/4
f 38/2/4 40/30/4 39/68/4
f 42/69/4 40/30/4 38/2/4
f 44/2/1 48/33/1 47/76/1
f 46/68/1 48/33/1 44/2/1
f 48/33/1 11/31/1 47/76/1
f 33/54/5 39/81/5 40/82/5
f 34/53/5 39/81/5 33/54/5
f 28/46/5 39/81/5 34/53/5
f 27/45/5 39/81/5 28/46/5
f 27/45/5 46/84/5 39/81/5
f 27/45/5 24/38/5 46/84/5
f 24/38/5 23/37/5 46/84/5
f 48/83/5 46/84/5 23/37/5
f 22/93/7 45/84/7 49/92/7
f 45/84/7 22/93/7 21/94/7
f 45/84/7 21/94/7 26/95/7
f 35/81/7 45/84/7 26/95/7
f 25/96/7 35/81/7 26/95/7
f 31/97/7 35/81/7 25/96/7
f 30/98/7 35/81/7 31/97/7
f 43/99/7 35/81/7 30/98/7
f 58/105/2 49/75/2 56/104/2
f 49/34/1 11/31/1 48/33/1
f 49/34/1 10/106/1 11/31/1
f 49/34/1 58/107/1 10/106/1
f 45/75/2 1/5/2 57/104/2
f 29/114/2 65/115/2 64/111/2
f 29/114/2 64/111/2 63/112/2
f 32/86/2 29/114/2 63/112/2
f 32/86/2 63/112/2 41/67/2
f 59/117/4 65/116/4 29/27/4
f 43/29/4 62/118/4 35/1/4
f 62/118/4 43/29/4 64/116/4
f 43/29/4 63/113/4 64/116/4
f 17/32/1 66/121/1 60/122/1
f 37/127/4 61/118/4 69/128/4
f 96/154/4 93/151/4 97/155/4
f 97/155/4 98/156/4 96/154/4
f 98/156/4 97/155/4 99/157/4
f 99/157/4 97/155/4 92/150/4
f 92/150/4 97/155/4 91/149/4
f 91/149/4 97/155/4 88/146/4
f 100/158/4 75/134/4 76/135/4
f 100/158/4 76/135/4 79/138/4
f 100/158/4 79/138/4 80/139/4
f 100/158/4 80/139/4 83/142/4
f 100/158/4 83/142/4 84/59/4
f 100/158/4 84/59/4 87/145/4
f 100/158/4 87/145/4 88/146/4
f 97/155/4 100/158/4 88/146/4
f 100/224/2 129/225/2 75/221/2
f 127/223/2 128/222/2 129/225/2
f 100/224/2 127/223/2 129/225/2
f 68/266/7 105/168/7 69/265/7
f 69/265/7 105/168/7 104/267/7
f 69/265/7 104/267/7 109/180/7
f 69/265/7 109/180/7 108/179/7
f 69/265/7 108/179/7 113/190/7
f 69/265/7 113/190/7 112/189/7
f 69/265/7 112/189/7 116/198/7
f 69/265/7 116/198/7 115/197/7
f 69/265/7 115/197/7 120/206/7
f 69/265/7 120/206/7 119/205/7
f 69/265/7 119/205/7 124/214/7
f 134/264/7 69/265/7 124/214/7
f 124/214/7 123/213/7 134/264/7
f 131/263/7 134/264/7 123/213/7
f 126/218/5 133/276/5 130/268/5
f 133/276/5 126/218/5 125/217/5
f 125/217/5 128/275/5 133/276/5
f 125/217/5 122/210/5 128/275/5
f 122/210/5 121/269/5 128/275/5
f 121/269/5 117/270/5 128/275/5
f 117/270/5 118/271/5 128/275/5
f 118/271/5 111/272/5 128/275/5
f 111/272/5 114/273/5 128/275/5
f 114/273/5 107/186/5 128/275/5
f 107/186/5 110/185/5 128/275/5
f 110/185/5 103/176/5 128/275/5
f 103/176/5 106/175/5 128/275/5
f 128/275/5 106/175/5 129/274/5
f 3/3/1 1/1/1 2/2/1
f 2/2/1 4/4/1 3/3/1
f 5/7/2 3/5/2 4/6/2
f 4/6/2 6/8/2 5/7/2
f 7/9/1 5/3/1 6/4/1
f 6/4/1 8/10/1 7/9/1
f 11/13/2 10/12/2 9/11/2
f 9/11/2 12/14/2 11/13/2
f 15/17/2 14/16/2 13/15/2
f 13/15/2 16/18/2 15/17/2
f 19/21/2 18/20/2 17/19/2
f 17/19/2 20/22/2 19/21/2
f 22/26/3 9/24/3 14/23/3
f 14/23/3 21/25/3 22/26/3
f 23/30/4 12/28/4 9/27/4
f 9/27/4 22/29/4 23/30/4
f 21/34/1 14/32/1 15/31/1
f 15/31/1 24/33/1 21/34/1
f 24/38/5 15/36/5 12/35/5
f 12/35/5 23/37/5 24/38/5
f 26/42/3 13/40/3 18/39/3
f 18/39/3 25/41/3 26/42/3
f 27/30/4 16/28/4 13/27/4
f 13/27/4 26/29/4 27/30/4
f 25/34/1 18/32/1 19/31/1
f 19/31/1 28/33/1 25/34/1
f 28/46/5 19/44/5 16/43/5
f 16/43/5 27/45/5 28/46/5
f 31/50/3 17/48/3 29/47/3
f 29/47/3 30/49/3 31/50/3
f 30/34/1 29/32/1 32/31/1
f 32/31/1 33/33/1 30/34/1
f 34/30/4 20/28/4 17/27/4
f 17/27/4 31/29/4 34/30/4
f 33/54/5 32/52/5 20/51/5
f 20/51/5 34/53/5 33/54/5
f 24/57/6 27/55/6 26/56/6
f 26/56/6 21/58/6 24/57/6
f 28/61/6 34/59/6 31/60/6
f 31/60/6 25/62/6 28/61/6
f 33/72/6 40/70/6 43/71/6
f 43/71/6 30/73/6 33/72/6
f 22/79/6 49/77/6 48/78/6
f 48/78/6 23/80/6 22/79/6
f 39/67/2 46/13/2 45/75/2
f 45/75/2 35/63/2 39/67/2
f 50/85/2 32/86/2 41/67/2
f 41/67/2 42/66/2 50/85/2
f 51/87/2 20/22/2 32/86/2
f 32/86/2 50/85/2 51/87/2
f 52/88/2 19/21/2 20/22/2
f 20/22/2 51/87/2 52/88/2
f 53/89/2 16/18/2 19/21/2
f 19/21/2 52/88/2 53/89/2
f 54/90/2 15/17/2 16/18/2
f 16/18/2 53/89/2 54/90/2
f 55/91/2 12/14/2 15/17/2
f 15/17/2 54/90/2 55/91/2
f 47/74/2 11/13/2 12/14/2
f 12/14/2 55/91/2 47/74/2
f 56/102/8 49/100/8 45/101/8
f 45/101/8 57/103/8 56/102/8
f 59/108/9 29/47/9 17/48/9
f 17/48/9 60/109/9 59/108/9
f 61/110/2 37/65/2 35/63/2
f 35/63/2 62/111/2 61/110/2
f 41/28/4 63/113/4 43/29/4
f 43/29/4 40/30/4 41/28/4
f 66/119/2 17/19/2 18/20/2
f 18/20/2 67/120/2 66/119/2
f 70/125/10 68/123/10 69/124/10
f 69/124/10 61/126/10 70/125/10
f 72/131/2 71/129/2 68/130/2
f 68/130/2 73/132/2 72/131/2
f 71/128/4 74/133/4 76/135/4
f 76/135/4 75/134/4 71/128/4
f 78/137/4 77/136/4 80/139/4
f 80/139/4 79/138/4 78/137/4
f 82/141/4 81/140/4 84/59/4
f 84/59/4 83/142/4 82/141/4
f 87/145/4 86/144/4 85/143/4
f 85/143/4 88/146/4 87/145/4
f 91/149/4 90/148/4 89/147/4
f 89/147/4 92/150/4 91/149/4
f 95/153/4 94/152/4 93/151/4
f 93/151/4 96/154/4 95/153/4
f 99/157/4 102/160/4 101/159/4
f 101/159/4 98/156/4 99/157/4
f 104/164/2 78/162/2 79/161/2
f 79/161/2 103/163/2 104/164/2
f 105/168/7 74/166/7 78/165/7
f 78/165/7 104/167/7 105/168/7
f 106/172/6 76/170/6 74/169/6
f 74/169/6 105/171/6 106/172/6
f 103/176/5 79/174/5 76/173/5
f 76/173/5 106/175/5 103/176/5
f 108/164/2 82/162/2 83/161/2
f 83/161/2 107/163/2 108/164/2
f 109/180/7 77/178/7 82/177/7
f 82/177/7 108/179/7 109/180/7
f 110/182/6 80/181/6 77/169/6
f 77/169/6 109/171/6 110/182/6
f 107/186/5 83/184/5 80/183/5
f 80/183/5 110/185/5 107/186/5
f 112/164/2 86/162/2 87/161/2
f 87/161/2 111/163/2 112/164/2
f 113/190/7 81/188/7 86/187/7
f 86/187/7 112/189/7 113/190/7
f 114/182/6 84/181/6 81/169/6
f 81/169/6 113/171/6 114/182/6
f 111/194/5 87/192/5 84/191/5
f 84/191/5 114/193/5 111/194/5
f 116/198/7 85/196/7 90/195/7
f 90/195/7 115/197/7 116/198/7
f 115/164/2 90/162/2 91/161/2
f 91/161/2 117/163/2 115/164/2
f 118/182/6 88/181/6 85/169/6
f 85/169/6 116/171/6 118/182/6
f 117/202/5 91/200/5 88/199/5
f 88/199/5 118/201/5 117/202/5
f 120/206/7 89/204/7 102/203/7
f 102/203/7 119/205/7 120/206/7
f 121/182/6 92/181/6 89/169/6
f 89/169/6 120/171/6 121/182/6
f 119/164/2 102/162/2 99/161/2
f 99/161/2 122/163/2 119/164/2
f 122/210/5 99/208/5 92/207/5
f 92/207/5 121/209/5 122/210/5
f 124/214/7 101/212/7 95/211/7
f 95/211/7 123/213/7 124/214/7
f 125/182/6 98/181/6 101/169/6
f 101/169/6 124/171/6 125/182/6
f 123/164/2 95/162/2 96/161/2
f 96/161/2 126/163/2 123/164/2
f 126/218/5 96/216/5 98/215/5
f 98/215/5 125/217/5 126/218/5
f 129/225/2 68/226/2 71/227/2
f 71/227/2 75/221/2 129/225/2
f 129/228/1 106/221/1 105/162/1
f 105/162/1 68/229/1 129/228/1
f 109/232/1 104/230/1 103/231/1
f 103/231/1 110/233/1 109/232/1
f 113/236/1 108/234/1 107/235/1
f 107/235/1 114/22/1 113/236/1
f 116/239/1 112/237/1 111/238/1
f 111/238/1 118/240/1 116/239/1
f 120/243/1 115/241/1 117/242/1
f 117/242/1 121/244/1 120/243/1
f 124/247/1 119/245/1 122/246/1
f 122/246/1 125/248/1 124/247/1
f 130/182/6 93/181/6 94/169/6
f 94/169/6 131/171/6 130/182/6
f 132/250/6 97/249/6 93/181/6
f 93/181/6 130/182/6 132/250/6
f 131/253/1 123/251/1 126/252/1
f 126/252/1 130/254/1 131/253/1
f 133/257/4 128/255/4 69/256/4
f 69/256/4 134/258/4 133/257/4
f 135/261/6 133/259/6 134/260/6
f 134/260/6 136/262/6 135/261/6

g Ground
v 60 0 -10
v 60 0 10
v -29.5 0 -10
v -29.5 0 10
v -29.5 0.5 -30
v 60 0.5 -30
v -29.5 0.5 -43
v 60 0.5 -43

vt -60 -10
vt -60 10
vt 29.5 -10
vt 29.5 10
vt 29.5 -9.996876
vt -60 -9.996876
vt 29.5 -30.00312
vt -60 -30.00312
vt 29.5 -30
vt -60 -30
vt 29.5 -43
vt -60 -43

vn 0 1 0
vn 0 0.9996877 0.02499219

usemtl ProBuilderDefault
f 139/279/11 140/280/11 138/278/11 137/277/11
f 142/284/12 141/283/12 139/281/12 137/282/12
f 144/288/11 143/287/11 141/285/11 142/286/11

g kanseikan
v 0 0 0
v 0 0 12.99998
v 0 12 0
v 0 12 12.99998
v 17 0 0
v 17 12 0
v 17 16 -0.0001001358
v 0 15.99993 -7.071067E-05
v -10 12 0
v -10 15.99991 -3.535534E-05
v -10 0 0
v -10 0 12.99998
v -10 4 12.99998
v -10 4 0
v -10.9999 4 12.99998
v -10.9999 12 12.99998
v -10.9999 12 0
v -10.9999 4 0
v -10 12 12.99998
v -10.9998 12 -10
v -10.99983 4.000071 -10
v -9.999929 4.000071 -10
v -9.9999 0 -10
v -10.9997 12 -20
v -10.99973 4.000071 -20
v -10.99963 0 -20
v -10.99973 0 -10
v -24.99986 4.000071 -20
v -24.99976 0 -20
v -24.99994 12 -10
v -24.99983 12 -20
v -25.00003 12 0
v -24.99985 8 -20
v -25.00003 8.0001 0
v -24.99994 8.0001 -10
v -24.99989 8.00005 -15
v -30.00007 8.00005 -4.959106E-10
v -26.25005 4.000071 -15
v -26.25003 8 -15
v -30.00005 4.000071 0
v -26.24995 0 -15
v -29.99995 0 0
v -24.99986 4.000071 -15.0001
v -24.99976 0 -15.0001
v -30.0001 12 -9.918212E-10
v -25.00003 16 -0.0001
v -30.0001 16 -0.000100001
v -10.9999 15.9999 0
v -31.25006 8.00005 4.999976
v -31.25004 4.000071 4.999976
v -31.24994 0 4.999976
v -30.0001 16 12.99993
v -30.0001 12 13.00002
v -30.00007 8.00005 13.00002
v -30.00011 8.00005 4.999988
v -30.00014 4.000071 4.999951
v -30.00004 0 4.999951
v -30.00014 4.000071 13.00008
v -30.00004 0 13.00008

vt 0 0
vt 12.99998 0
vt 0 12
vt 12.99998 12
vt 0 12.99998
vt -17 0
vt -17 12
vt -17 16
vt 0 15.99993
vt 10 12
vt 10 15.99991
vt -12.99998 0
vt -12.99998 4
vt 0 4
vt -12.99998 12
vt -10 12.99998
vt -10 0
vt -10.9999 12.99998
vt -10.9999 0
vt 10 0
vt 10 12.99998
vt 10.9999 0
vt 10.9999 12.99998
vt 9.999888 12
vt 9.999888 4.000072
vt 9.999929 0
vt 10.99983 -10.00003
vt 9.999929 -10.00003
vt 9.999888 11.99996
vt 19.99989 11.99996
vt 19.99989 4.00003
vt 19.99989 0.0002753643
vt 10.99983 4.000071
vt 24.99986 4.000071
vt 24.99976 0
vt 10.9997 -20
vt 24.99994 -10
vt 24.99983 -20
vt 25.00003 0
vt 24.99983 12
vt 10.9997 12
vt 24.99985 8
vt -9.999752 12
vt 0.0002479556 8.0001
vt -9.999752 8.0001
vt -19.99976 7.999952
vt -9.999762 11.99995
vt -19.99976 11.99995
vt -14.99976 8.000002
vt 7.276144 7.999942
vt -8.185507 3.999963
vt -8.18551 7.999892
vt 7.27614 3.999963
vt 7.276081 4.000771
vt -8.185589 0.0007000957
vt -8.185565 4.000771
vt 7.276057 0.0007000957
vt -20 4.00069
vt -20 0.0006198715
vt -15.0001 4.00069
vt -15.0001 0.0006198715
vt -19.99978 8.000178
vt -14.99988 4.000249
vt -19.99978 4.000249
vt 24.99989 7.999678
vt 24.99986 3.999699
vt 26.25003 7.999628
vt 26.25005 3.999699
vt 24.99867 4.000071
vt 24.99857 2.951045E-08
vt 26.24886 4.000071
vt 26.24876 2.951045E-08
vt 25.00003 12
vt 25.00003 8.0001
vt 30.0001 12
vt 30.00007 8.00005
vt 24.99982 -9.999961
vt 24.99977 -14.99996
vt 26.24992 -14.99996
vt 29.99995 3.871782E-05
vt 25.00003 16
vt 30.0001 16
vt 10.9999 15.9999
vt 7.276066 8.000171
vt 7.276062 4.000192
vt 12.42992 8.000171
vt 12.42992 4.000192
vt 12.42992 4.000771
vt 12.42989 0.000700096
vt -0.000100001 16
vt 12.99993 16
vt 13.00002 12
vt 13.00002 8.000184
vt 4.99998 8.000184
vt -31.25001 8.00005
vt -31.24999 4.000071
vt -30.00006 8.00005
vt -30.00009 4.000071
vt -31.25014 4.000071
vt -31.25004 -2.41182E-09
vt -30.00014 -2.41182E-09
vt 30.00007 -4.959106E-10
vt 31.25006 4.999976
vt 30.00011 4.999988
vt 4.999951 4.000814
vt 4.999951 0.0007438537
vt 13.00008 4.000814
vt 13.00008 0.0007438537
vt 4.999951 3.99987
vt 13.00008 3.99987
vt 4.999988 7.999849
vt 13.00002 7.999849

vn -1 0 0
vn 0 -1 0
vn 0 0 -1
vn 1 0 0
vn 0 1 0
vn -0.9701422 -2.312944E-07 -0.2425366
vn -9.918636E-06 -4.256639E-11 1

usemtl ProBuilderDefault
f 177/330/15 169/321/15 172/322/15
f 168/329/15 169/321/15 177/330/15
f 175/328/15 168/329/15 177/330/15
f 175/336/13 177/334/13 180/337/13
f 180/337/13 179/333/13 174/335/13
f 175/336/13 180/337/13 174/335/13
f 178/323/17 179/365/17 181/368/17
f 183/367/17 181/368/17 179/365/17
f 179/365/17 180/366/17 183/367/17
f 199/382/13 198/381/13 197/380/13
f 189/291/13 181/332/13 199/382/13
f 197/380/13 189/291/13 199/382/13
f 181/390/17 193/391/17 199/392/17
f 147/291/15 153/298/15 152/297/15
f 153/298/15 154/299/15 152/297/15
f 153/298/15 161/329/15 154/299/15
f 161/329/15 192/371/15 154/299/15
f 160/306/14 153/305/14 163/304/14
f 160/306/14 161/307/14 153/305/14
f 147/289/14 148/293/14 153/305/14
f 148/293/14 163/304/14 153/305/14
f 147/291/13 145/289/13 146/290/13
f 146/290/13 148/292/13 147/291/13
f 149/294/15 145/289/15 147/291/15
f 147/291/15 150/295/15 149/294/15
f 151/296/15 150/295/15 147/291/15
f 147/291/15 152/297/15 151/296/15
f 158/302/16 157/301/16 156/300/16
f 156/300/16 155/289/16 158/302/16
f 161/291/16 160/303/16 159/301/16
f 159/301/16 162/302/16 161/291/16
f 159/311/17 157/309/17 158/308/17
f 158/308/17 162/310/17 159/311/17
f 164/312/16 161/291/16 162/302/16
f 162/302/16 165/313/16 164/312/16
f 166/313/16 158/302/16 155/289/16
f 155/289/16 167/314/16 166/313/16
f 165/315/17 162/310/17 158/308/17
f 158/308/17 166/316/17 165/315/17
f 168/318/16 164/317/16 165/313/16
f 165/313/16 169/319/16 168/318/16
f 170/320/16 169/319/16 165/313/16
f 165/313/16 171/314/16 170/320/16
f 167/314/15 171/310/15 165/321/15
f 165/321/15 166/313/15 167/314/15
f 172/322/15 169/321/15 170/310/15
f 170/310/15 173/323/15 172/322/15
f 174/325/17 164/315/17 168/324/17
f 168/324/17 175/326/17 174/325/17
f 176/327/17 161/310/17 164/315/17
f 164/315/17 174/325/17 176/327/17
f 178/332/13 176/291/13 174/331/13
f 174/331/13 179/333/13 178/332/13
f 181/338/18 183/340/18 182/339/18
f 182/339/18 184/341/18 181/338/18
f 184/342/18 182/344/18 185/343/18
f 185/343/18 186/345/18 184/342/18
f 187/348/13 172/346/13 173/347/13
f 173/347/13 188/349/13 187/348/13
f 187/351/13 180/337/13 177/350/13
f 177/350/13 172/352/13 187/351/13
f 183/355/15 180/353/15 187/354/15
f 187/354/15 182/356/15 183/355/15
f 182/359/15 187/357/15 188/358/15
f 188/358/15 185/360/15 182/359/15
f 189/363/15 176/361/15 178/362/15
f 178/362/15 181/364/15 189/363/15
f 190/369/15 176/361/15 189/363/15
f 189/363/15 191/370/15 190/369/15
f 190/369/15 192/371/15 161/329/15
f 161/329/15 176/361/15 190/369/15
f 193/374/18 181/372/18 184/373/18
f 184/373/18 194/375/18 193/374/18
f 194/376/18 184/342/18 186/345/18
f 186/345/18 195/377/18 194/376/18
f 196/379/13 191/378/13 189/291/13
f 189/291/13 197/380/13 196/379/13
f 199/385/19 193/383/19 194/384/19
f 194/384/19 200/386/19 199/385/19
f 200/386/19 194/387/19 195/388/19
f 195/388/19 201/389/19 200/386/19
f 202/395/13 200/393/13 201/394/13
f 201/394/13 203/396/13 202/395/13
f 199/399/13 200/397/13 202/398/13
f 202/398/13 198/400/13 199/399/13

