# ProBuilder 4.0.5
# https://unity3d.com/unity/features/worldbuilding/probuilder
# 2020/07/04 23:38:23

mtllib ./gaiheki.mtl
o gaiheki

g gaiheki
v 0.2001 0.1 -0.3
v 0.4 0.09999999 -0.3001
v 0.3999999 2.8 -0.300325
v 0.2000999 2.8 -0.300225
v 0.3999998 2.8 -3.90005
v 0.2000999 2.8 -3.89995
v 0.3999998 0.1 -3.90005
v 0.2000999 0.1 -3.89995
v 0.3999999 2.8 -4.699901
v 0.3999999 0.1 -4.699901
v 0.2001 2.8 -4.699901
v 0.2001 0.1 -4.699901
v 0.3999999 2.8 -8.3
v 0.2001 2.8 -8.3
v 0.3999999 0.1 -8.3
v 0.2001 0.1 -8.3
v 0.4000705 2.899929 -3.90005
v 0.4000706 2.899929 -4.699901
v 0.3999999 2.8999 -0.3004
v 0.3999999 2.8999 -8.3
v 0.4000706 7.072836E-05 -4.699901
v 0.4000705 7.070601E-05 -3.90005
v 0.4 9.998679E-05 -0.3001001
v 0.3999999 0.0001000166 -8.3
v 0.4000706 2.8 -0.2001457
v 0.4000999 2.8999 -0.20015
v 0.4000707 0.1 -0.1999207
v 0.4001 0.0001000166 -0.1998501
v 0.4000999 2.8999 -8.400001
v 0.4000706 2.8 -8.39993
v 0.4000706 0.1 -8.39993
v 0.4000999 0.0001000166 -8.400001

vt -47.34472 -17.15287
vt -50.11039 -17.15287
vt -50.11039 20.20239
vt -47.34472 20.20239
vt -50.10919 19.71189
vt -50.1115 16.98033
vt -0.9202709 19.6949
vt -0.9225769 16.96335
vt -0.9072962 19.71188
vt -3.650664 19.71283
vt -0.9200308 -17.17107
vt -3.663399 -17.17012
vt -0.9195518 -17.17033
vt -0.9199753 -14.43875
vt -50.11195 -17.15335
vt -50.11238 -14.42177
vt -0.9200301 19.71189
vt -0.9200301 -17.17013
vt 10.00963 19.71189
vt 10.00963 -17.17013
vt 12.74027 19.71189
vt 12.74026 -17.17013
vt 10.00963 16.98032
vt 59.20367 19.71188
vt 59.20367 16.98032
vt 59.19061 19.71178
vt 56.459 19.71178
vt 59.1906 -17.18323
vt 56.45899 -17.18323
vt 59.20369 -17.17012
vt 59.20369 -14.43856
vt 10.00963 -14.43856
vt -0.9200287 21.07738
vt 10.00963 21.07738
vt -50.10768 21.09397
vt -0.9197922 21.07738
vt 59.20367 21.07698
vt 10.00963 -18.53563
vt -0.9200287 -18.53563
vt -0.9200325 -18.55241
vt -50.11243 -18.53502
vt 59.20369 -18.53523
vt -51.4952 19.71237
vt -51.49446 21.09465
vt -50.11195 -17.15287
vt -50.10884 20.20239
vt -51.49796 -17.15287
vt -51.49485 20.20239
vt -50.11195 -18.53502
vt -51.49894 -18.53502
vt 59.204 21.07764
vt 59.20333 19.71188
vt 60.57047 21.07698
vt 60.56884 19.71121
vt 60.56883 19.71178
vt 60.56883 -17.18323
vt 60.56921 -17.17013
vt 60.57017 -18.53523

vn -0.000500184 -8.333613E-05 -0.9999999
vn 0 -1 0
vn 0.0004997369 0 0.9999999
vn 1.034273E-12 1 2.069634E-09
vn 1 0 7.451974E-08
vn 0 0 -1
vn 0 0 1
vn 0.9999998 -0.0007077091 7.451972E-08
vn 0.9999999 -0.0003537054 9.799744E-06
vn 0.9999998 0.0007077093 7.453949E-08
vn 0.9999998 -2.317406E-07 -0.0007056459
vn 0.9999995 0 0.0009998636

g gaiheki
usemtl gaiheki
f 6/8/2 5/7/2 3/5/2 4/6/2
f 3/3/1 2/2/1 1/1/1 4/4/1
f 8/12/3 7/11/3 5/9/3 6/10/3
f 1/16/4 2/15/4 7/13/4 8/14/4
f 10/20/5 9/19/5 5/17/5 7/18/5
f 12/22/6 11/21/6 9/19/6 10/20/6
f 14/25/2 13/24/2 9/19/2 11/23/2
f 16/29/7 15/28/7 13/26/7 14/27/7
f 12/32/4 10/20/4 15/30/4 16/31/4
f 18/34/8 17/33/8 5/17/8 9/19/8
f 17/36/8 19/35/9 3/5/5 5/7/9
f 20/37/5 18/34/9 9/19/8 13/24/9
f 22/39/10 21/38/10 10/20/10 7/18/10
f 23/41/5 22/40/9 7/13/10 2/15/9
f 21/38/10 24/42/9 15/30/5 10/20/9
f 26/44/11 25/43/11 3/5/11 19/35/11
f 25/48/11 27/47/11 2/45/11 3/46/11
f 27/47/11 28/50/11 23/49/11 2/45/11
f 30/54/12 29/53/12 20/51/12 13/52/12
f 31/56/12 30/55/12 13/26/12 15/28/12
f 32/58/12 31/57/12 15/30/12 24/42/12

