# ProBuilder 4.0.5
# https://unity3d.com/unity/features/worldbuilding/probuilder
# 2020/07/12 1:21:02

mtllib ./gaiheki.mtl
o gaiheki

g gaiheki
v 0.2001 0.1 -0.3
v 0.4 0.09999999 -0.3001
v 0.3999999 2.8 -0.300325
v 0.2000999 2.8 -0.300225
v 0.3999998 2.8 -3.90005
v 0.2000999 2.8 -3.89995
v 0.3999998 0.1 -3.90005
v 0.2000999 0.1 -3.89995
v 0.3999999 2.8 -4.699901
v 0.3999999 0.1 -4.699901
v 0.2001 2.8 -4.699901
v 0.2001 0.1 -4.699901
v 0.3999999 2.8 -8.3
v 0.2001 2.8 -8.3
v 0.3999999 0.1 -8.3
v 0.2001 0.1 -8.3
v 0.4000705 3.100029 -3.90005
v 0.4000706 3.100029 -4.699901
v 0.3999999 3.1 -0.3003998
v 0.3999999 3.1 -8.3
v 0.4000706 -0.1000293 -4.699901
v 0.4000705 -0.1000293 -3.90005
v 0.4 -0.1 -0.3001001
v 0.3999999 -0.09999999 -8.3
v 0.4000706 2.8 0.09973972
v 0.4000999 3.1 0.09973492
v 0.4000707 0.1 0.09996469
v 0.4001 -0.09999999 0.1000353
v 0.4000999 3.1 -8.700035
v 0.4000706 2.8 -8.699965
v 0.4000706 0.1 -8.699965
v 0.4000999 -0.09999999 -8.700035

vt -51.84127 -18.7549
vt -54.80758 -18.7549
vt -54.80758 21.31029
vt -51.84127 21.31029
vt -54.80576 21.29666
vt -54.80724 18.33035
vt -1.389662 21.29666
vt -1.391144 18.33035
vt -4.354962 21.29666
vt -1.389664 -18.7549
vt -4.354962 -18.7549
vt -1.391146 -15.78859
vt -54.80924 -18.7549
vt -54.81073 -15.78859
vt 10.47926 21.29666
vt 10.47926 -18.7549
vt 13.44457 21.29667
vt 13.44456 -18.75491
vt 10.47927 18.33036
vt 63.90092 21.29666
vt 63.90092 18.33036
vt 63.90158 21.29663
vt 60.93628 21.29663
vt 63.90158 -18.75493
vt 60.93628 -18.75493
vt 63.90107 -18.7549
vt 63.90107 -15.78859
vt 10.47926 -15.78859
vt -1.38966 19.91188
vt 10.47926 19.91188
vt -1.38966 24.36401
vt 10.47926 24.36401
vt -54.80576 19.91208
vt -1.38966 19.91208
vt -54.80465 24.36376
vt 63.90092 19.91188
vt 63.90092 24.36356
vt 10.47926 -18.06212
vt -1.389659 -18.06212
vt 10.47926 -21.03035
vt -1.38966 -21.03035
vt -54.80924 -18.06212
vt -54.80924 -21.02991
vt 63.90108 -18.06226
vt 63.90108 -21.03007
vt -52.7305 19.91207
vt -52.72939 24.36376
vt -58.66705 19.91207
vt -58.66697 24.36376
vt -52.734 -18.7549
vt -52.73066 21.31029
vt -58.67052 -18.7549
vt -58.66717 21.31029
vt -52.73389 -21.03006
vt -52.7339 -18.06226
vt -58.67149 -21.03006
vt -58.67044 -18.06226
vt 69.83703 24.36356
vt 69.83598 19.91188
vt 63.90092 -20.15321
vt 69.83596 -20.15321
vt 5.776873 1.304268
vt 5.776873 -1.662515
vt 11.71192 1.304268
vt 11.71296 -1.662515

vn -0.000500184 -8.333613E-05 -0.9999999
vn 0 -1 0
vn 0.0004997369 0 0.9999999
vn 1.034273E-12 1 2.069634E-09
vn 1 0 7.451974E-08
vn 0 0 -1
vn 0 0 1
vn 0.9999999 0.0003535528 7.452633E-08

g gaiheki
usemtl gaiheki
f 6/8/2 5/7/2 3/5/2 4/6/2
f 3/3/1 2/2/1 1/1/1 4/4/1
f 8/11/3 7/10/3 5/7/3 6/9/3
f 1/14/4 2/13/4 7/10/4 8/12/4
f 10/16/5 9/15/5 5/7/5 7/10/5
f 12/18/6 11/17/6 9/15/6 10/16/6
f 14/21/2 13/20/2 9/15/2 11/19/2
f 16/25/7 15/24/7 13/22/7 14/23/7
f 12/28/4 10/16/4 15/26/4 16/27/4
f 18/32/5 17/31/5 5/29/5 9/30/5
f 17/31/5 19/35/5 3/33/5 5/34/5
f 20/37/5 18/32/5 9/30/5 13/36/5
f 22/41/8 21/40/8 10/38/8 7/39/8
f 23/43/5 22/41/5 7/39/8 2/42/5
f 21/40/8 24/45/5 15/44/5 10/38/5
f 26/49/8 25/48/5 3/46/5 19/47/5
f 25/53/5 27/52/5 2/50/5 3/51/5
f 27/57/5 28/56/5 23/54/5 2/55/5
f 30/59/5 29/58/5 20/37/8 13/36/5
f 31/61/5 30/59/5 13/36/5 15/60/5
f 32/65/5 31/64/5 15/62/5 24/63/5

