# ProBuilder 4.0.5
# https://unity3d.com/unity/features/worldbuilding/probuilder
# 2020/06/29 19:40:38

mtllib ./rouka.mtl
o rouka

g rouka
v -8.09917 0.6 -7.355995
v -8.09917 1.3 -7.355995
v -8.110926 0.6 -7.352175
v -8.110926 1.3 -7.352175
v -8.118191 0.6 -7.342175
v -8.118191 1.3 -7.342175
v -8.118191 0.6 -7.329814
v -8.118191 1.3 -7.329814
v -8.110926 0.6 -7.319814
v -8.110926 1.3 -7.319814
v -8.09917 0.6 -7.315995
v -8.09917 1.3 -7.315995
v -8.09917 0.6 -7.335995
v -8.09917 1.3 -7.335995
v -8.1 0 -7.3
v -8.1 0 -8.1
v -8.14993 7.069111E-05 -7.3
v -8.150001 0.0001000166 -8.1
v -8.1 0 -8.3
v -8.14993 7.069111E-05 -8.3
v -8.1 0.1 -8.3
v -8.1499 0.1 -8.3
v -8.1 2.1 -8.3
v -8.1499 2.1 -8.3
v -8.1 2.1 -7.35
v -8.1499 2.1 -7.35
v -8.1 2.1 -7.3
v -8.1499 2.1 -7.3
v -8.1 0.1 -7.3
v -8.1499 0.1 -7.3
v -8.1 2.55 -8.3
v -8.1 2.55 -7.35
v -8.1499 2.55 -8.3
v -8.1499 2.55 -7.35
v -8.1 2.15 -7.35
v -8.1499 2.15 -7.35
v -8.1 2.15 -8.3
v -8.1499 2.15 -8.3
v -8.1 2.15 -6.5
v -8.1 2.15 -7.3
v -8.1499 2.15 -6.5
v -8.1499 2.15 -7.3
v -8.1 2.55 -7.3
v -8.1 2.55 -6.5
v -8.1499 2.55 -7.3
v -8.1499 2.55 -6.5
v -8.1499 2.1 -6.5
v -8.1499 0.1 -6.5
v -8.14993 7.069111E-05 -6.5
v -8.1499 2.599986 -8.3
v -8.149971 2.600015 -7.35
v -8.149971 2.600015 -7.3
v -8.1499 2.599986 -6.5
v -8.150001 2.599986 -6.4
v -8.149971 2.55 -6.400071
v -8.149971 2.15 -6.400071
v -8.150001 2.1 -6.4
v -8.150001 0.1 -6.4
v -8.15003 7.069111E-05 -6.4
v -8.599956 2.55 -8.29993
v -8.599985 2.599986 -8.3
v -8.600056 2.600014 -7.5
v -8.600056 2.600015 -7.2
v -8.599985 2.599986 -6.5
v -8.600085 2.599986 -6.4
v -8.600056 2.55 -6.400071
v -8.600056 2.15 -6.400071
v -8.600085 2.1 -6.4
v -8.600085 0.1 -6.4
v -8.600115 7.069111E-05 -6.4
v -8.599985 0.0001415014 -7.3
v -8.599985 0.0002000332 -8.1
v -8.599915 0.0001413822 -8.29993
v -8.599885 0.1 -8.2999
v -8.599956 2.1 -8.29993
v -8.599956 2.15 -8.29993
v -8.599885 0.1 -9.69995
v -8.599956 2.1 -9.69998
v -8.599956 2.15 -9.69998
v -8.599956 2.55 -9.69998
v -8.599985 2.599986 -9.70005
v -8.599915 0.0001413822 -9.69998
v -8.600015 7.069111E-05 -6.5
v -11.20002 0.0002448559 -5.099924
v -11.19996 0.0001413822 -9.69998
v -8.600115 0.0001413822 -5.099977
v -8.600085 2.1 -5.100006
v -8.600085 0.1 -5.100006
v -8.600056 2.55 -5.100077
v -8.600056 2.15 -5.100077
v -8.600085 2.599986 -5.100006
v -11.19997 2.599915 -7.2
v -11.1999 2.599886 -6.5
v -11.19997 2.599915 -7.5
v -11.19997 2.599915 -8.3
v -11.2 2.599986 -9.70005
v -11.20007 2.599915 -6.4
v -11.2001 2.599986 -5.100006

vt 0.254179 -0.4
vt 0.254179 0.3
vt 0.2665386 -0.4
vt 0.2665386 0.3
vt -0.08383095 -0.4
vt -0.08383095 0.3
vt -0.07147002 -0.4
vt -0.07147002 0.3
vt -0.3921747 -0.4
vt -0.3921747 0.3
vt -0.3798141 -0.4
vt -0.3798141 0.3
vt -0.5530796 -0.4
vt -0.5530796 0.3
vt -0.540719 -0.4
vt -0.540719 0.3
vt -0.5050879 -0.4
vt -0.5050879 0.3
vt -0.4927273 -0.4
vt -0.4927273 0.3
vt 0.4299994 -0.375165
vt 0.4099998 -0.375165
vt 0.4261808 -0.3869209
vt -0.4300003 -0.375165
vt -0.4099998 -0.375165
vt -0.4261808 -0.3869209
vt 0.4161797 -0.3941855
vt -0.4161797 -0.3941855
vt 0.4100008 -0.3751645
vt 0.40382 -0.3941855
vt -0.40382 -0.3941855
vt 0.3938179 -0.3869205
vt -0.3938179 -0.3869205
vt 0.3899994 -0.3751655
vt -0.3899994 -0.3751655
vt 2.888353 4.667362
vt 3.920354 4.667447
vt 2.888348 4.731771
vt 3.920348 4.731947
vt 4.178354 4.667469
vt 4.178349 4.731878
vt -8.1 0
vt -8.1 0.1
vt -8.14993 7.069111E-05
vt -8.1499 0.1
vt 9.677876 0.2098287
vt 9.678348 1.576273
vt 9.643785 0.2098404
vt 9.644256 1.576285
vt -8.1 -8.3
vt -8.1 -7.35
vt -8.1499 -8.3
vt -8.1499 -7.35
vt -8.1 -7.3
vt -8.1499 -7.3
vt 8.1 2.1
vt 8.1 0.1
vt 8.1499 2.1
vt 8.1499 0.1
vt 8.1 0
vt 8.14993 7.069111E-05
vt 8.1 2.55
vt 8.1 2.15
vt 8.1499 2.55
vt 8.1499 2.15
vt -8.1 2.15
vt -8.1 2.55
vt -8.1499 2.15
vt -8.1499 2.55
vt 8.1 -7.35
vt 8.1 -8.3
vt 8.1499 -7.35
vt 8.1499 -8.3
vt 8.1 -6.5
vt 8.1 -7.3
vt 8.1499 -6.5
vt 8.1499 -7.3
vt -8.1 -6.5
vt -8.1499 -6.5
vt 0.1462789 3.219533
vt 0.1459074 2.570372
vt 0.1804457 3.219514
vt 0.1800742 2.570352
vt 0.1800537 2.536186
vt 0.453382 2.53603
vt 0.4534016 2.570195
vt 0.1458874 2.536206
vt -0.1277595 1.579189
vt -0.1277595 0.2125816
vt 0.4188838 1.579189
vt 0.4188838 0.2125816
vt -7.3 0.09758889
vt -7.3 -0.00234045
vt -6.5 0.09758889
vt -6.5 -0.00234045
vt -0.1277595 1.613355
vt 0.4188838 1.613355
vt 0.4537616 3.219347
vt 0.4879179 3.219328
vt 0.4875779 2.570176
vt 0.4875584 2.536011
vt -7.3 2.561497
vt -6.5 2.561497
vt -7.3 2.611512
vt -6.5 2.611483
vt -6.491836 2.599986
vt -6.491836 2.55
vt -6.391836 2.599986
vt -6.391907 2.55
vt 0.4188833 1.886676
vt 0.4871655 1.886676
vt 0.4871655 1.613355
vt 0.4872136 1.57919
vt 0.4872141 0.2125816
vt -6.491836 0.09758696
vt -6.491836 -0.002342373
vt -6.391836 0.09758696
vt -6.391836 -0.002342373
vt 9.644019 1.883735
vt 9.644019 1.917886
vt 9.336533 1.883735
vt 9.336513 1.917886
vt 0.7955227 3.219144
vt 0.7952442 2.672489
vt 0.487628 2.535953
vt 0.7951221 2.467441
vt 0.4871845 1.989432
vt 0.7950993 2.467519
vt 0.7947206 1.98922
vt 0.4872227 1.92107
vt 0.7947598 1.920833
vt 0.7947087 1.886677
vt 0.7947102 1.613355
vt 8.149971 2.159031
vt 8.150001 2.109031
vt 8.600056 2.159031
vt 8.600085 2.109031
vt 0.7947588 1.579189
vt 0.7947588 0.2125816
vt 8.150001 0.1
vt 8.15003 7.069111E-05
vt 8.600085 0.1
vt 8.600115 7.069111E-05
vt 1.727348 4.731804
vt 1.856348 4.731686
vt 2.8883 5.312342
vt 3.920301 5.312428
vt -8.148628 7.030594E-05
vt -8.148599 0.09999964
vt -8.598613 0.0001409971
vt -8.598583 0.09999964
vt 9.64402 0.2098402
vt 9.336581 0.2098402
vt 9.336533 1.576285
vt 9.64402 1.610446
vt 9.336533 1.610446
vt 9.335401 0.2097674
vt 9.336325 1.576248
vt 8.37883 0.2104279
vt 8.379754 1.576909
vt 9.336349 1.61041
vt 8.379778 1.611071
vt 8.379966 1.884438
vt 8.379968 1.918695
vt -8.29993 -0.002404687
vt -8.2999 0.09745396
vt -9.69998 -0.002404687
vt -9.69995 0.09745396
vt 1.8563 5.312295
vt 4.17821 5.312357
vt 5.984274 5.312506
vt 0.04992437 8.666148
vt 5.983998 8.666573
vt 1.7273 5.312413
vt 0.0502696 5.312275
vt 1.683049 1.579189
vt 1.683049 0.2125816
vt 1.683002 1.886677
vt 1.683002 1.613355
vt -6.400071 2.144915
vt -6.4 2.094915
vt -5.100077 2.144915
vt -5.100006 2.094915
vt 1.68305 1.920832
vt -6.4 0.0974557
vt -6.4 -0.002473637
vt -5.100006 0.0974557
vt -5.099977 -0.002402945
vt -8.599956 -7.200109
vt -8.599885 -6.500108
vt -11.19987 -7.200109
vt -11.1998 -6.500108
vt -8.599956 -7.499998
vt -8.599956 -7.199998
vt -11.19987 -7.499998
vt -11.19987 -7.199998
vt -8.599915 -8.299907
vt -11.1999 -8.299907
vt -8.599985 -9.70005
vt -8.599985 -8.3
vt -11.2 -9.70005
vt -11.19997 -8.3
vt -8.600015 -6.4
vt -8.600015 -5.100006
vt -11.2 -6.4
vt -11.20003 -5.100006
vt -8.599985 -6.4
vt -11.19997 -6.4
vt 3.459286 0.1444187
vt 4.416576 1.920432
vt 4.348246 1.920476
vt 3.459955 1.920831
vt 4.894889 1.920287
vt 5.09988 1.920216
vt 5.646522 1.920028
vt 6.603183 1.919746
vt 6.60252 0.1432626
vt 1.68307 0.1443478
vt 3.459591 0.1444185
vt 8.378881 0.1422002
vt 8.37971 1.577041
vt 8.379893 1.884528
vt 6.602332 0.1432627

vn -0.3089971 0 -0.951063
vn -0.8090363 0 -0.5877587
vn -1 0 0
vn -0.8090363 0 0.5877587
vn -0.3089971 0 0.951063
vn 0 -1 0
vn 0 1 0
vn 0.001415814 0.999999 0
vn 0.001708067 0.9999985 1.824016E-05
vn 0.00200032 0.999998 3.648032E-05
vn 0 0 1
vn 0 0 -1
vn -0.9999995 -0.0007055104 -3.712146E-05
vn -0.999999 -0.001411021 -7.424291E-05
vn -0.9999995 0 -0.001001358
vn -0.9999995 -0.0002952253 -0.0008537882
vn -0.9999996 -0.0005904506 -0.0007062178
vn -0.9999993 0.0005898649 -0.001001358
vn 7.840362E-05 0.0007059209 0.9999995
vn 0 0.001411842 0.999999
vn 0 0.001411842 -0.999999
vn 0 -0.001411438 -0.999999
vn 0.0002225316 -0.0002961234 0.9999999
vn -0.9999998 0.0005912785 0
vn 0.9999993 0.0002893452 0.0005802523
vn 1 3.228214E-05 2.27398E-05
vn -7.615869E-05 -7.793436E-06 -0.9999995
vn -1.357129E-05 0.0007059175 -0.9999995
vn -0.0001492664 -0.0007056387 -0.9999995

g rouka_0
usemtl Wall
f 89/178/28 98/212/27 91/184/21
f 90/179/29 98/212/27 89/178/28
f 90/179/29 87/176/27 98/212/27
f 87/176/27 84/219/12 98/212/27
f 88/177/12 84/219/12 87/176/27
f 88/177/12 86/218/12 84/219/12
f 77/159/11 85/223/11 82/220/11
f 77/159/11 78/221/11 85/223/11
f 96/216/23 85/223/11 78/221/11
f 79/162/11 96/216/23 78/221/11
f 80/222/19 96/216/23 79/162/11
f 81/164/20 96/216/23 80/222/19
f 85/217/26 96/216/26 95/215/26
f 85/217/26 95/215/26 94/214/26
f 85/217/26 94/214/26 92/213/26
f 84/209/25 85/217/26 93/210/25
f 85/217/26 92/213/26 93/210/25
f 93/210/25 97/211/25 84/209/25
f 97/211/25 98/212/26 84/209/25
f 20/44/11 19/42/11 21/43/11
f 21/43/11 22/45/11 20/44/11
f 22/48/11 21/46/11 23/47/11
f 23/47/11 24/49/11 22/48/11
f 24/52/6 23/50/6 25/51/6
f 25/51/6 26/53/6 24/52/6
f 33/52/6 31/50/6 32/51/6
f 32/51/6 34/53/6 33/52/6
f 38/68/11 37/66/11 31/67/11
f 31/67/11 33/69/11 38/68/11
f 36/72/7 35/70/7 37/71/7
f 37/71/7 38/73/7 36/72/7
f 41/76/7 39/74/7 40/75/7
f 40/75/7 42/77/7 41/76/7
f 45/55/6 43/54/6 44/78/6
f 44/78/6 46/79/6 45/55/6
f 46/64/12 44/62/12 39/63/12
f 39/63/12 41/65/12 46/64/12
f 42/68/11 40/66/11 43/67/11
f 43/67/11 45/69/11 42/68/11
f 38/82/3 24/80/3 26/81/3
f 26/81/3 36/83/3 38/82/3
f 36/83/3 42/84/3 45/85/3
f 45/85/3 34/86/3 36/83/3
f 36/83/3 26/81/3 28/87/3
f 28/87/3 42/84/3 36/83/3
f 47/90/3 28/88/3 30/89/3
f 30/89/3 48/91/3 47/90/3
f 48/94/3 30/92/3 17/93/3
f 17/93/3 49/95/3 48/94/3
f 42/96/3 28/88/3 47/90/3
f 47/90/3 41/97/3 42/96/3
f 50/99/13 33/98/3 34/86/13
f 34/86/13 51/100/14 50/99/13
f 51/100/14 34/86/14 45/85/14
f 45/85/14 52/101/14 51/100/14
f 52/104/13 45/102/14 46/103/13
f 46/103/13 53/105/3 52/104/13
f 54/108/16 53/106/15 46/107/16
f 46/107/16 55/109/17 54/108/16
f 55/111/16 46/110/16 41/97/16
f 41/97/16 56/112/16 55/111/16
f 56/112/16 41/97/16 47/90/16
f 47/90/16 57/113/18 56/112/16
f 57/113/15 47/90/15 48/91/15
f 48/91/15 58/114/15 57/113/15
f 58/117/15 48/115/15 49/116/15
f 49/116/15 59/118/15 58/117/15
f 60/121/19 33/119/11 50/120/19
f 50/120/19 61/122/20 60/121/19
f 65/131/21 54/130/21 55/111/21
f 55/111/21 66/132/21 65/131/21
f 66/132/12 55/111/12 56/112/12
f 56/112/12 67/133/12 66/132/12
f 67/136/22 56/134/22 57/135/22
f 57/135/22 68/137/22 67/136/22
f 68/138/12 57/113/12 58/114/12
f 58/114/12 69/139/12 68/138/12
f 69/142/12 58/140/12 59/141/12
f 59/141/12 70/143/12 69/142/12
f 73/150/11 20/148/11 22/149/11
f 22/149/11 74/151/23 73/150/11
f 74/153/11 22/152/11 24/49/11
f 24/49/11 75/154/11 74/153/11
f 75/154/11 24/49/11 38/155/11
f 38/155/11 76/156/11 75/154/11
f 76/156/11 38/155/11 33/119/11
f 33/119/11 60/121/11 76/156/11
f 77/159/3 74/157/3 75/158/3
f 75/158/3 78/160/3 77/159/3
f 78/160/3 75/158/3 76/161/3
f 76/161/3 79/162/3 78/160/3
f 79/162/3 76/161/3 60/121/3
f 60/121/3 80/163/3 79/162/3
f 80/163/13 60/121/13 61/122/13
f 61/122/13 81/164/13 80/163/13
f 82/167/3 73/165/3 74/166/3
f 74/166/3 77/168/3 82/167/3
f 87/176/3 68/138/3 69/139/3
f 69/139/3 88/177/3 87/176/3
f 89/178/3 66/132/3 67/133/3
f 67/133/3 90/179/3 89/178/3
f 90/182/24 67/180/24 68/181/24
f 68/181/24 87/183/24 90/182/24
f 91/184/13 65/131/13 66/132/13
f 66/132/13 89/178/13 91/184/13
f 88/187/3 69/185/3 70/186/3
f 70/186/3 86/188/3 88/187/3

g rouka_1
usemtl Floor1
f 73/170/7 82/171/7 84/172/7
f 82/171/7 85/173/7 84/172/7
f 17/38/7 18/39/7 71/146/7
f 18/39/7 72/147/7 71/146/7
f 18/39/7 20/41/7 72/147/7
f 20/41/7 73/170/7 72/147/7
f 72/147/7 73/170/7 84/172/7
f 71/146/7 72/147/7 84/172/7
f 83/169/7 71/146/7 84/172/7
f 70/174/7 84/172/7 86/175/7
f 70/174/7 83/169/7 84/172/7
f 59/144/7 49/145/7 70/174/7
f 49/145/7 83/169/7 70/174/7
f 49/145/7 17/38/7 83/169/7
f 17/38/7 71/146/7 83/169/7
f 17/38/9 15/36/8 16/37/9
f 16/37/9 18/39/10 17/38/9
f 18/39/9 16/37/10 19/40/9
f 19/40/9 20/41/8 18/39/9

g rouka_2
usemtl Celling
f 1/21/6 13/22/6 3/23/6
f 3/23/6 13/22/6 5/27/6
f 5/27/6 13/29/6 7/30/6
f 7/30/6 13/22/6 9/32/6
f 9/32/6 13/22/6 11/34/6
f 4/26/7 14/25/7 2/24/7
f 6/28/7 14/25/7 4/26/7
f 8/31/7 14/25/7 6/28/7
f 10/33/7 14/25/7 8/31/7
f 12/35/7 14/25/7 10/33/7
f 4/4/1 2/2/1 1/1/1
f 1/1/1 3/3/1 4/4/1
f 6/8/2 4/6/2 3/5/2
f 3/5/2 5/7/2 6/8/2
f 8/12/3 6/10/3 5/9/3
f 5/9/3 7/11/3 8/12/3
f 10/16/4 8/14/4 7/13/4
f 7/13/4 9/15/4 10/16/4
f 12/20/5 10/18/5 9/17/5
f 9/17/5 11/19/5 12/20/5
f 61/123/6 50/99/6 51/100/6
f 51/100/6 62/124/6 61/123/6
f 62/124/6 51/100/6 52/125/6
f 52/125/6 63/126/6 62/124/6
f 63/128/6 52/101/6 53/127/6
f 53/127/6 64/129/6 63/128/6
f 64/129/6 53/127/6 54/130/6
f 54/130/6 65/131/6 64/129/6
f 92/191/6 63/189/6 64/190/6
f 64/190/6 93/192/6 92/191/6
f 95/198/6 61/197/6 62/193/6
f 62/193/6 94/195/6 95/198/6
f 96/201/6 81/199/6 61/200/6
f 61/200/6 95/202/6 96/201/6
f 97/205/6 65/203/6 91/204/6
f 91/204/6 98/206/6 97/205/6
f 93/192/6 64/190/6 65/207/6
f 65/207/6 97/208/6 93/192/6

g rouka_3
usemtl Light
f 28/55/6 26/53/6 25/51/6 27/54/6
f 30/59/12 28/58/12 27/56/12 29/57/12
f 17/61/12 30/59/12 29/57/12 15/60/12
f 36/65/12 34/64/12 32/62/12 35/63/12
f 92/196/6 94/195/6 62/193/6 63/194/6

