# ProBuilder 4.0.5
# https://unity3d.com/unity/features/worldbuilding/probuilder
# 2020/06/25 17:52:41

mtllib ./BackStage.mtl
o BackStage

g BackStage
v -9.5 0.0001 -0.3000001
v -9.5 0.0001 -1.3
v -8.1 1.666667E-05 -0.3
v -8.1 0 -1.3
v -8.1 0 -0.9
v -8.2 3.888889E-05 -0.3
v -8.1 2.1 -0.3
v -8.1 0.1 -0.3
v -8.2 2.1 -0.3
v -8.2 3.1 0.09990007
v -8.2 0.0001095987 0.0999293
v -9.5 0.0002 0.1
v -8.2 0.0002095987 3.2
v -9.5 0.0003 3.200071
v -6.484985E-05 3.1 0.09990007
v -3.528595E-05 0.0001803125 0.09992927
v 3.528595E-05 0.0003095987 3.2
v -9.5 2.1 -1.3
v -9.5 2.1 3.1
v 3.528595E-05 2.10005 3.2
v -8.2 2.09995 3.2
v -8.1 2.1 -1.3
v -8.1 0.1 -1.3
v -8.2 2.1 -1.3
v -8.1 2.15 -0.3
v -8.1 2.15 -1.25
v -8.1999 2.15 -0.3
v -8.1999 2.15 -1.25
v -8.1 2.55 -0.3
v -8.2 2.6 -0.3
v -8.1 2.55 -1.25
v -8.2 2.6 -1.2
v -8.2 3.1 -1.8
v -8.1 2.55 -1.3
v -8.1 2.15 -1.3
v -8.1999 2.55 -1.3
v -8.1999 2.15 -1.3

vt -6.511545 7.335523
vt -4.605213 7.335592
vt -6.511447 4.666658
vt -4.605115 4.666728
vt -5.367648 4.6667
vt -6.511454 4.85729
vt 4.213663 0.1585948
vt 4.213663 1.592578
vt 4.281949 0.15861
vt 4.213663 0.2268689
vt 4.281949 1.592578
vt -6.511455 0.8541193
vt -7.273797 -1.052214
vt -7.273852 4.857209
vt -7.274078 7.335495
vt -13.18362 4.857045
vt -13.18384 7.335278
vt 4.555033 2.275432
vt 4.555033 0.1586579
vt 10.1544 2.275432
vt 10.15442 0.1587063
vt -7.273279 -10.77459
vt -13.18304 -10.77494
vt -4.605212 11.33866
vt -7.274078 7.335749
vt -13.18384 7.33594
vt -12.99307 11.33867
vt 12.27131 0.1587942
vt 17.87074 0.1587259
vt 12.27131 1.592612
vt 17.87074 1.592543
vt -15.47903 11.44795
vt -15.65517 7.444499
vt -0.6018181 4.667162
vt -4.414482 4.66675
vt -0.6021061 7.336026
vt -0.6018386 4.857794
vt 4.281949 2.275441
vt 4.213663 2.275441
vt 4.213663 1.610863
vt 4.862373 1.610863
vt 4.213663 1.679081
vt 4.862373 1.679081
vt -4.605133 0.8541207
vt -4.70045 0.758804
vt -6.511459 0.7588042
vt 3.940515 1.610863
vt 3.906371 1.67915
vt -6.511454 -0.09904775
vt 3.955785 1.610862
vt 3.375545 1.320743
vt 3.921641 1.67915
vt 3.371941 1.404299
vt 3.363703 1.320743
vt 3.360099 1.404299
vt 3.11939 1.198588
vt 3.092103 1.253163
vt -4.795755 -0.09904796
vt -3.651956 -1.052214
vt 8.1 2.55
vt 8.1 2.15
vt 8.1999 2.55
vt 8.1999 2.15

vn 5.451432E-05 1 -0.0001422685
vn 2.98025E-07 0 -1
vn -0.9999927 0.001001346 -0.00250399
vn -1 0 0
vn -0.9999964 0.000445042 -0.001182439
vn 0 9.431326E-06 1
vn 1 0 0
vn 0.07669642 0 -0.9970545
vn 0.03831935 -0.02380275 -0.9979604
vn -5.771668E-05 -0.04760549 -0.9988663
vn 0 -1 0
vn -0.999998 0.002002714 0
vn -0.9999927 0.000890084 -0.002364878
vn -0.9999999 -0.000222524 0.0002782245
vn -0.447217 -0.8944255 0
vn 0.4472153 0 0.8944263
vn 0.2236076 -0.05521571 0.944155
vn 0 -0.1104314 0.9938837

g BackStage_0
usemtl ProBuilderDefault
f 24/37/6 23/35/6 22/34/6
f 2/2/6 4/4/6 23/35/6
f 23/35/6 24/37/6 2/2/6
f 24/37/6 18/36/6 2/2/6
f 9/12/3 6/6/4 10/13/5
f 6/6/4 11/14/4 10/13/5
f 9/12/3 10/13/5 27/46/13
f 27/46/13 10/13/5 30/49/14
f 15/20/6 10/18/6 11/19/6
f 11/19/6 16/21/6 15/20/6
f 16/22/1 11/14/1 13/16/1
f 13/16/1 17/23/1 16/22/1
f 20/30/2 17/28/2 13/29/2
f 13/29/2 21/31/2 20/30/2
f 20/30/4 15/20/4 16/21/4
f 16/21/4 17/28/4 20/30/4
f 27/42/1 25/40/1 26/41/1
f 26/41/1 28/43/1 27/42/1
f 28/45/12 24/44/12 9/12/12
f 9/12/12 27/46/12 28/45/12
f 26/56/17 31/54/16 32/55/17
f 32/55/17 28/57/18 26/56/17
f 32/58/4 30/49/4 10/13/4
f 10/13/4 33/59/4 32/58/4

g BackStage_1
usemtl Floor1
f 1/1/1 6/6/1 2/2/1
f 5/5/1 4/4/1 2/2/1
f 6/6/1 5/5/1 2/2/1
f 3/3/1 5/5/1 6/6/1
f 6/6/1 1/1/1 11/14/1
f 1/1/1 12/15/1 11/14/1
f 11/14/1 12/15/1 13/16/1
f 12/15/1 14/17/1 13/16/1

g BackStage_2
usemtl Wall
f 9/11/2 8/10/2 6/9/2
f 7/8/2 8/10/2 9/11/2
f 8/10/2 3/7/2 6/9/2
f 2/2/7 18/24/7 1/1/7
f 1/1/7 18/24/7 12/25/7
f 19/27/7 12/25/7 18/24/7
f 19/27/7 14/26/7 12/25/7
f 19/27/9 21/32/8 13/33/9
f 13/33/9 14/26/10 19/27/9
f 9/11/11 24/38/11 22/39/11
f 22/39/11 7/8/11 9/11/11
f 29/47/2 25/40/2 27/42/2
f 27/42/2 30/48/2 29/47/2
f 32/53/15 31/51/15 29/50/15
f 29/50/15 30/52/15 32/53/15
f 36/62/2 34/60/2 35/61/2
f 35/61/2 37/63/2 36/62/2

